<?xml version="1.0" encoding="UTF-8"?>
<svg xmlns="http://www.w3.org/2000/svg" xmlns:xlink="http://www.w3.org/1999/xlink" width="47pt" height="40pt"
     viewBox="-19 0 66 20" version="1.1">
    <defs>
        <filter id="alpha" filterUnits="objectBoundingBox" x="0%" y="0%" width="100%" height="100%">
            <feColorMatrix type="matrix" in="SourceGraphic" values="0 0 0 0 1 0 0 0 0 1 0 0 0 0 1 0 0 0 1 0"/>
        </filter>
        <mask id="mask0">
            <g filter="url(#alpha)">
                <rect x="0" y="0" width="47" height="40"
                      style="fill:rgb(0%,0%,0%);fill-opacity:0.0901961;stroke:none;"/>
            </g>
        </mask>
        <clipPath id="clip1">
            <rect x="0" y="0" width="47" height="40"/>
        </clipPath>
        <g id="surface5" clip-path="url(#clip1)">
            <path style=" stroke:none;fill-rule:evenodd;fill:rgb(0%,0%,0%);fill-opacity:1;"
                  d="M 13.855469 37.324219 C 16.347656 34.992188 17.859375 32.773438 18.953125 30.5625 C 19.765625 28.921875 20.289062 27.296875 20.980469 25.660156 C 21.210938 25.113281 21.519531 24.570312 21.785156 24.015625 C 22.316406 22.90625 23.160156 21.734375 24.988281 20.578125 C 26.769531 19.449219 28.660156 18.769531 30.511719 18.363281 C 33.554688 17.699219 37.03125 17.644531 40.03125 18.664062 C 42.484375 19.5 43.910156 20.855469 44.460938 22.117188 C 44.910156 23.148438 44.867188 24.203125 44.441406 25.265625 C 43.996094 26.371094 43.125 27.503906 41.390625 28.6875 C 40.5 29.292969 39.515625 29.773438 38.617188 30.132812 C 37.703125 30.492188 36.785156 30.71875 35.863281 30.988281 C 34.058594 31.511719 32.21875 31.898438 30.371094 32.28125 C 24.871094 33.425781 19.433594 34.679688 13.855469 37.324219 Z M 13.855469 37.324219 "/>
        </g>
    </defs>
    <g id="surface1">
        <path style="fill-rule:evenodd;fill:rgb(90.980392%,11.764706%,14.509804%);fill-opacity:1;stroke-width:37;stroke-linecap:butt;stroke-linejoin:miter;stroke:rgb(0%,0%,0%);stroke-opacity:1;stroke-miterlimit:10;"
              d="M 730.979471 1839.585059 C 692.213846 1649.290137 623.755402 1490.980957 541.069149 1344.210938 C 479.621509 1235.297461 408.482463 1134.886523 342.704621 1029.212109 C 320.641207 993.987305 301.670795 956.738086 280.638381 920.096191 C 238.367354 847.014844 204.138132 762.191895 206.406333 652.266211 C 208.468334 544.769824 239.604555 458.529785 284.349983 388.080176 C 358.169631 272.08125 481.683511 177.13623 647.262217 152.033496 C 782.735705 131.789355 909.754987 166.204395 999.864445 218.83916 C 1073.477892 261.95918 1130.389129 319.452539 1173.691157 387.067969 C 1219.055186 457.922461 1250.191406 541.32832 1252.665808 650.444238 C 1254.109209 706.115625 1244.830203 757.940625 1232.045795 800.858203 C 1219.055186 844.180664 1198.022773 880.417676 1179.464761 919.286426 C 1142.967337 994.999512 1097.397108 1064.234473 1051.620678 1133.671875 C 915.11619 1340.162109 787.065908 1550.903613 730.979471 1839.585059 Z M 730.979471 1839.585059 "
              transform="matrix(0.018944,0,0,0.0192957,0,0)"/>
        <use xlink:href="#surface5" mask="url(#mask0)"/>
        <path style=" stroke:none;fill-rule:evenodd;fill:rgb(0%,0%,0%);fill-opacity:1;"
              d="M 17.292969 12.5625 C 17.292969 14.515625 15.738281 16.101562 13.820312 16.101562 C 11.902344 16.101562 10.347656 14.515625 10.347656 12.5625 C 10.347656 10.609375 11.902344 9.023438 13.820312 9.023438 C 15.738281 9.023438 17.292969 10.609375 17.292969 12.5625 Z M 17.292969 12.5625 "/>
    </g>
</svg>
